<?xml version="1.0" encoding="UTF-8"?>
<svg id="Scene" xmlns="http://www.w3.org/2000/svg" viewBox="0 0 995 768">
  <defs>
    <style>
     
    </style>
  </defs>
  <g id="Plant">
    <g id="Pot">
      <ellipse class="cls-9" cx="717.73" cy="494.82" rx="77.05" ry="13.49"/>
      <path id="Soil" class="cls-2" d="m774.39,504.63c-16.42,2.19-35.61,3.45-55.96,3.45-22.59,0-43.75-1.55-61.28-4.21l.25-.26c1.64-3.66,26.38-6.5,58.13-6.5s59.42,3.27,59.42,7.32l-.56.21h0Z"/>
      <path class="cls-4" d="m794.78,494.82c0,7.45-35,13.49-77.05,13.49s-77.05-6.04-77.05-13.49l3.2,17.83c0,7.45,31.8,13.49,73.85,13.49s74.3-6.04,74.3-13.49l2.74-17.83Z"/>
      <path class="cls-9" d="m649.51,517.9c10.91,4.84,36.69,8.24,68.22,8.24s56.84-3.31,68.14-8.04l-17.55,62.8c-.75,4.22-23.12,8.81-50.59,8.81s-47.56-3.68-50.13-8.81l-18.09-63.01Z"/>
    </g>
    <g id="Plant-Stems">
      <g id="trim">
        <path class="cls-3" d="m713.95,504.41c-1.37-11.3-4.85-22.23-9.92-32.41-5.12-10.27-11.81-19.72-19.47-28.25-7.95-8.87-16.98-16.68-26.64-23.62-10.48-7.54-21.66-14.05-33.11-19.98-11.51-5.96-23.31-11.34-35.13-16.64-1.47-.66-2.94-1.32-4.4-1.97-.8-.36-1.5.82-.69,1.18,11.76,5.26,23.51,10.53,35.03,16.32,11.39,5.72,22.56,11.95,33.11,19.13,9.93,6.75,19.27,14.34,27.59,23.02,7.89,8.24,14.85,17.39,20.36,27.39,5.43,9.84,9.39,20.51,11.28,31.6.24,1.41.44,2.82.62,4.23.11.86,1.48.88,1.37,0h0Z"/>
        <path id="leaf-1" class="cls-3" d="m595.28,387.29c.48-12.09,6.37-23.71,2.52-35.27-2.43-7.31-8.28-11.88-13.84-12.83-5.56-.95-10.9,1.1-15.94,3.53-6.49,3.13-13.01,7.19-17.07,14.71-4.06,7.52-4.92,19.35-.23,27.58,4.48,7.86,12.32,10.01,19.02,9.22,6.7-.79,13.06-3.83,19.86-3.63"/>
      </g>
      <g>
        <path class="cls-10" d="m716.53,502.53c-.53-18.68-2.12-37.33-4.73-55.84-2.63-18.6-6.31-37.05-10.99-55.24-4.66-18.12-10.32-35.98-16.96-53.47-6.62-17.47-14.2-34.59-22.7-51.23-8.51-16.65-17.96-32.84-28.29-48.43-1.3-1.96-2.61-3.91-3.93-5.84-.49-.72-1.68-.04-1.18.69,10.51,15.38,20.15,31.35,28.86,47.82,8.76,16.55,16.6,33.59,23.47,51,6.83,17.33,12.71,35.04,17.61,53.01,4.89,17.97,8.8,36.22,11.68,54.62,2.9,18.5,4.76,37.16,5.55,55.86.1,2.35.18,4.69.25,7.04.02.88,1.39.88,1.37,0h0Z"/>
        <path id="leaf-2" class="cls-3" d="m637.9,236.68c10.81-3,15.14-17.55,10.27-27.65-4.87-10.1-16.1-15.77-27.17-17.55-2.49-.4-5.08-.64-7.49.08-2.55.76-4.67,2.51-6.56,4.39-8.5,8.45-13.44,20.37-13.43,32.36,0,2.41.22,4.9,1.42,6.99,2.13,3.72,6.71,5.19,10.94,5.88,7.9,1.29,16.06.98,23.84-.91"/>
      </g>
      <g>
        <path class="cls-10" d="m716.29,504.95c.85-14.63,1.69-29.26,2.04-43.91.35-14.62.21-29.26-.92-43.85-1.03-13.28-2.89-26.5-5.92-39.48-2.85-12.2-6.73-24.16-11.82-35.6s-11.37-22.2-19-32.04c-.96-1.23-1.93-2.45-2.93-3.65-.56-.68-1.53.29-.97.97,7.95,9.59,14.55,20.23,19.9,31.47s9.48,23.18,12.55,35.3c3.2,12.66,5.25,25.57,6.45,38.57,1.32,14.37,1.63,28.81,1.4,43.23-.23,14.52-1,29.03-1.83,43.53-.11,1.82-.21,3.64-.32,5.46-.05.88,1.32.88,1.37,0h0Z"/>
        <path id="leaf-3" class="cls-3" d="m692.61,321.41c7.91-1.75,14.41-8.68,15.63-16.69.52-3.37.16-6.9-1.27-10-3.33-7.22-12.15-10.86-20.03-9.72s-14.72,6.26-19.69,12.47c-4.87,6.08-8.23,14.86-4.17,21.5,5.09,8.32,17.29,7.3,26.82,5.18"/>
      </g>
      <g>
        <path class="cls-10" d="m720.7,505.11c-.98-18.08-1.49-36.19-1.61-54.3-.12-18.32.14-36.64.69-54.95.55-18.4,1.38-36.78,2.41-55.15,1.02-18.31,2.25-36.61,3.57-54.9,1.31-18.08,2.73-36.14,4.17-54.2.17-2.2.35-4.4.53-6.61.07-.88-1.3-.87-1.37,0-1.44,18.03-2.87,36.05-4.2,54.09-1.35,18.27-2.61,36.55-3.68,54.84-1.07,18.37-1.97,36.75-2.58,55.15-.61,18.33-.96,36.66-.93,55,.03,18.14.43,36.28,1.3,54.4.11,2.21.22,4.43.34,6.63.05.88,1.42.88,1.37,0h0Z"/>
        <path id="leaf-3-2" data-name="leaf-3" class="cls-3" d="m727.94,235.55c-16.65-3.96-28.31-22.52-24.65-39.24.96-4.4,2.98-8.77,6.57-11.49,3.83-2.9,8.88-3.53,13.68-3.74,6.42-.28,13.13.11,18.76,3.21,8.95,4.94,13.25,16.53,10.66,26.42s-11.28,17.63-21.19,20.14"/>
      </g>
      <g>
        <path class="cls-10" d="m723.73,502.46c-1.36-19.39.73-38.84,5.31-57.7,4.62-19.01,11.65-37.38,19.91-55.09,8.33-17.83,17.92-35.04,27.98-51.95,10.06-16.91,19.35-31.99,30.46-47.01,11.01-14.89,23.39-28.89,37.85-40.52,1.87-1.51,3.78-2.97,5.72-4.4.7-.52.02-1.71-.69-1.18-15,11.02-27.92,24.54-39.34,39.19-11.56,14.83-21.64,30.74-31.35,46.83-10.25,16.99-20.12,34.24-28.82,52.09-8.63,17.72-16.13,36.07-21.34,55.1-5.11,18.65-7.95,37.99-7.42,57.35.07,2.43.19,4.87.36,7.29.06.88,1.43.88,1.37,0h0Z"/>
        <path id="leaf-5" class="cls-3" d="m840.12,252.05c-3.37-3.18-6.66-6.95-7.18-11.55-.86-7.67,6.32-14.01,13.63-16.49,11.29-3.84,24.41-1.76,33.96,5.38,1.93,1.44,3.82,3.24,4.33,5.59.39,1.83-.11,3.73-.75,5.48-4.31,11.65-15.88,20.24-28.27,21.02-3.68.23-7.53-.21-10.7-2.11s-5.51-5.45-5.19-9.13"/>
      </g>
      <g>
        <path class="cls-10" d="m724.07,506.11c1.5-10.23,3.9-20.33,7.12-30.16,3.23-9.84,7.28-19.4,12.09-28.57,4.79-9.14,10.32-17.88,16.52-26.13,6.22-8.27,13.13-16.04,20.63-23.17,7.49-7.14,15.59-13.64,24.2-19.4,1.05-.7,2.11-1.39,3.18-2.07.74-.48.05-1.66-.69-1.18-8.8,5.62-17.1,11.99-24.81,19.03-7.66,7-14.74,14.64-21.14,22.8s-12.23,16.94-17.27,26.09c-5,9.09-9.25,18.58-12.71,28.36-3.47,9.84-6.11,19.99-7.85,30.28-.21,1.25-.41,2.5-.59,3.75-.13.86,1.19,1.23,1.32.37h0Z"/>
        <path id="leaf-6" class="cls-3" d="m797.24,381.82c-.3-7.82,1.56-16.05,6.82-21.85s14.36-8.43,21.27-4.75c7.37,3.93,10,13.13,10.81,21.44.42,4.21.51,8.66-1.43,12.42-2.11,4.11-6.37,6.75-10.76,8.17-5.57,1.8-11.98,1.86-16.98-1.19-5-3.05-7.96-9.69-5.67-15.08"/>
      </g>
    </g>
  </g>
  <g id="Chair">
    <path class="cls-7" d="m688.37,520.91c2.43,49.83,5.51,70.44,2.81,120.26-.11,2.06-.32,4.33-1.79,5.77-1.23,1.21-3.04,1.54-4.75,1.82-104.43,16.99-189.67,27.08-295.42,30.46-3.93.13-70.67.46-81-.92l-4.26-.65c-2.13.97-4.58.8-6.91.58-42.1-4-82.5-18.22-124.07-25.98-15.84-2.96-33.6-6-43.07-19.04-4.63-6.37-6.52-14.28-8.16-21.99-10.87-51.13-15.14-103.66-12.68-155.88l-.61-3c.37-18.67.02-42.55.02-61.22,0-52.47,4.25-92.2,24.85-131.62,20.6-39.42,39.32-57.88,77.32-81,38-23.12,131.38-30.3,173.04-14.73,20.37,7.61,36.78,14.9,52.74,29.67,44.45,41.13,74.03,97.99,82.2,157.99.57,4.2,1.31,8.9,4.72,11.42,2.02,1.5,4.62,1.92,7.1,2.29,43.74,6.59,40.53,13.18,84.27,19.78,26.13,3.94,54.01,8.7,73.22,26.83,8.93,8.43,15.64,21.06,12.06,32.81-4.47,14.67-9.65,26.65-24.54,30.32-13.73,3.39-48.56-4.57-54.31-17.49-4.79-10.77,1.84-42.34,29.45-49.7"/>
    <path class="cls-5" d="m686.99,520.91c1.66,33.9,4.6,67.71,3.6,101.69-.15,5.03-.35,10.06-.61,15.09-.12,2.36.2,5.43-1.1,7.47-1.49,2.34-4.95,2.33-7.48,2.74-10.34,1.67-20.68,3.31-31.03,4.9-20.06,3.08-40.15,5.99-60.28,8.63-38.6,5.07-77.33,9.15-116.16,12-31.13,2.28-62.42,4.32-93.64,4.5-21.25.12-42.55.29-63.79-.48-2.77-.1-5.99-.21-8.48-.56-1.13-.16-2.31-.48-3.45-.53-1.68-.06-3.25.68-4.99.66-5.15-.06-10.43-.99-15.51-1.71-20.37-2.91-40.38-7.84-60.33-12.82-19.3-4.82-38.62-9.13-58.12-13.04-8.1-1.62-16.36-3.58-23.63-7.62-7.82-4.35-13.08-11.01-15.93-19.47-3.19-9.47-4.72-19.65-6.5-29.46-1.92-10.58-3.56-21.21-4.91-31.87-2.64-20.82-4.2-41.77-4.69-62.75-.24-10.49-.22-20.99.08-31.47.11-4.05.88-8.52.24-12.52-.59-3.64-.33-7.29-.3-10.99.16-18.66-.17-37.33-.09-55.99.15-34.99,2.26-70.55,14.33-103.72,5.68-15.62,13.5-30.54,22.5-44.51,7.7-11.96,16.73-22.95,27.29-32.49,11.46-10.36,24.37-19.09,37.6-27.02,10.29-6.17,21.87-10.07,33.41-13.13,28.34-7.52,58.29-10.32,87.56-9.41,13.16.41,26.41,1.6,39.24,4.65,14.55,3.46,29.06,9.66,42.04,17.01,15.49,8.77,28.27,21.29,39.97,34.56s22.05,27.81,30.87,43.18c8.82,15.38,16.11,31.62,21.7,48.45,2.76,8.31,5.11,16.76,7.03,25.31s2.73,17.04,4.53,25.47c.72,3.38,2.12,6.71,5.11,8.66,3.57,2.33,8.5,2.37,12.58,3.05,7.66,1.27,15.28,2.8,22.78,4.81,10.9,2.93,21.45,6.98,32.43,9.63,32.59,7.87,71.7,6.53,97.12,31.91,6.25,6.24,11.47,14.69,11.64,23.75.08,4.32-1.36,8.38-2.76,12.41-1.22,3.49-2.6,6.93-4.42,10.16-3.69,6.52-9.19,11.31-16.49,13.32-5.3,1.46-11.08,1.07-16.48.41-6.67-.81-13.31-2.41-19.62-4.72-5.4-1.98-11.17-4.6-15.15-8.88-6.24-6.72-3.48-18.64-.56-26.22,4.66-12.1,14.29-21.42,26.86-24.89,1.71-.47.98-3.14-.73-2.66-12.64,3.5-22.59,12.53-27.83,24.5-3.43,7.84-6.25,18.99-2.45,27.24,2.11,4.58,6.71,7.71,11.01,10.01,5.81,3.11,12.19,5.19,18.59,6.67,11.67,2.69,25.5,4.43,35.93-2.82,5.66-3.93,9.33-9.81,11.98-16.07,2.98-7.05,5.77-14.62,4.52-22.37-2.78-17.19-18.72-29.49-33.54-36.4-16.04-7.49-33.69-10.53-51.06-13.18-14.77-2.25-29.16-5.28-43.37-9.89-13.63-4.42-27.32-7.78-41.5-9.98-5.32-.83-9.84-1.68-11.53-7.49-1.22-4.22-1.47-8.76-2.19-13.08-1.5-8.96-3.46-17.83-5.89-26.58-9.59-34.64-26.25-67.25-48.6-95.39-11.11-13.99-23.62-27.78-38.17-38.26-13.59-9.79-29.65-16.87-45.55-22.03-12.02-3.89-24.76-5.56-37.32-6.46-15.26-1.09-30.62-.85-45.86.33-15.05,1.17-30.07,3.25-44.8,6.58-12.56,2.84-25.13,6.54-36.69,12.31-6.53,3.26-12.67,7.34-18.75,11.37s-12.57,8.68-18.49,13.5c-11.1,9.04-20.89,19.47-29.21,31.11-19.61,27.44-32.68,59.01-38.03,92.3-6.02,37.48-4.14,75.65-4.24,113.44-.01,4.76-.04,9.52-.12,14.27-.02,1.26-.04,2.41.2,3.64.38,1.94.28,3.7.2,5.69-.44,10.87-.59,21.74-.45,32.62.28,21.75,1.72,43.48,4.31,65.07,1.27,10.54,2.8,21.05,4.6,31.51s3.5,20.69,6.25,30.75c2.3,8.41,6.18,16.05,13.16,21.49,6.07,4.73,13.45,7.44,20.83,9.36,9.02,2.35,18.28,3.7,27.4,5.63,10.26,2.18,20.46,4.66,30.64,7.19,20.87,5.19,41.72,10.61,62.97,14.06,4.91.8,9.85,1.49,14.79,2.06,2.49.28,5.03.66,7.54.69,1.72.02,3.31-.66,4.8-.67,3.05-.03,6.36.85,9.45.99,10.57.5,21.17.52,31.75.59,22.44.14,44.8,0,67.22-.96,41.1-1.76,82.14-4.76,123.05-9.08s81.04-9.86,121.38-16.13c5.45-.85,10.89-1.71,16.34-2.58,2.66-.43,5.33-.85,7.99-1.29,2.25-.36,4.69-.51,6.8-1.43,3.56-1.55,4.04-5.17,4.23-8.64.29-5.14.51-10.28.68-15.42.57-17.08.34-34.14-.52-51.21-.89-17.69-2.13-35.36-3-53.05-.09-1.77-2.85-1.78-2.76,0h0Z"/>
  </g>
  <g id="Chair-seat">
    <path class="cls-6" d="m313.75,546.69c114.13-10.12,240.84-12.47,347.93-20.25,11.72-.85,27.6,1.65,26.69-10.12-.92-11.97,2.32-28.47-7.61-34.79-4.66-2.96-10.48-3.15-15.99-3.23-81.4-1.3-131.96-5.36-212.94,3.05-28.11,2.92-96.32,12.17-140.83,19.33,0,0,96.51-15.16,160.57-21.19s187.67-1.28,187.67-1.28c0,0,9.27.3-2.7-3.48s-29.83-10.87-29.83-10.87c-13.73-3.58-38.49-13.16-51.2-15.68-37.22-7.37-79.39-25.62-117.24-22.97-50.32,3.52-95.73,0-147.27,9.2"/>
    <path class="cls-5" d="m313.75,548.07c29.23-2.59,58.51-4.62,87.81-6.36,29.82-1.78,59.66-3.26,89.5-4.68,29.38-1.4,58.77-2.73,88.15-4.24,27.81-1.43,55.57-3.4,83.37-5.03,4.95-.29,9.94-.05,14.88-.58,3.69-.4,7.96-1.18,10.45-4.22,2.89-3.53,1.66-8.58,1.65-12.77-.01-5.32.21-10.68-.52-15.97-.65-4.64-2.18-9.47-5.86-12.6-4.81-4.1-11.42-4.57-17.46-4.69-14.83-.3-29.65-.58-44.47-.95-26.29-.66-52.6-1.39-78.9-1.14-27.77.26-55.51,1.71-83.16,4.38-20.17,1.95-40.26,4.6-60.34,7.28-24.13,3.23-48.23,6.64-72.29,10.33-5.31.82-10.62,1.65-15.93,2.5-1.75.28-1.01,2.94.73,2.66,11.66-1.83,23.34-3.57,35.02-5.28,25.39-3.72,50.81-7.24,76.27-10.41,24.36-3.03,48.76-5.92,73.29-7.14,24.46-1.21,48.98-1.44,73.46-1.36,21.46.07,42.91.42,64.36.98,6.47.17,12.95.36,19.42.57,2.25.08,4.52.25,6.77.22,1.01-.01,2.32,0,3.2-.56,1.35-.87.91-2.36-.2-3.18-2.23-1.63-5.39-2.22-7.97-3.06-3.1-1.01-6.17-2.09-9.24-3.19-5.43-1.95-10.82-3.99-16.19-6.09-3.6-1.41-7.35-2.32-11.05-3.48-12.57-3.95-24.93-8.67-37.68-12.01-6.67-1.75-13.47-2.94-20.16-4.63-7.92-2.01-15.79-4.23-23.66-6.44-16-4.49-32.07-9.01-48.53-11.51-7.73-1.17-15.54-1.92-23.36-1.86-8.48.06-16.97.93-25.44,1.28-34.43,1.45-68.97.75-103.27,4.53-8.64.95-17.24,2.18-25.8,3.7-1.75.31-1.01,2.97.73,2.66,34.08-6.05,68.62-6.59,103.13-7.37,8.52-.19,17.04-.42,25.55-.78,8.36-.36,16.73-1.21,25.09-1.27,16.02-.1,31.89,3.01,47.37,6.86,15.8,3.93,31.35,8.77,47.12,12.77,6.58,1.67,13.26,2.86,19.83,4.55,6.15,1.58,12.19,3.57,18.22,5.56s12.57,4.23,18.9,6.24c3.82,1.22,7.78,2.11,11.51,3.57,4.93,1.93,9.89,3.81,14.86,5.63,3.1,1.13,6.21,2.24,9.33,3.29,2.96,1,5.88,2.13,8.82,3.15.11.04.21.18.33.19l.05.05c.42.43.51-.08.3-1.53-.05-.03,0,.09-.25.07-.37-.04-.92.1-1.41.12-.32,0-.64,0-.97,0-.93-.02-1.87-.07-2.8-.1-5.25-.18-10.5-.35-15.76-.5-19.77-.56-39.55-.94-59.33-1.1-24.35-.19-48.72-.1-73.06.77-23.36.84-46.54,3.02-69.76,5.75-26.09,3.06-52.12,6.58-78.12,10.29-15.81,2.26-31.6,4.59-47.38,7.04-.77.12-1.54.24-2.31.36l.73,2.66c23.08-3.71,46.21-7.06,69.37-10.27,20.91-2.9,41.85-5.71,62.83-8.11,25.34-2.9,50.8-4.76,76.28-5.57,25.44-.81,50.89-.51,76.33.07,13.54.31,27.07.68,40.6.99,7.35.17,14.7.33,22.06.46,6.81.12,14.89-.71,20.96,2.98,4.28,2.61,5.92,7.49,6.56,12.22.71,5.27.43,10.63.45,15.93.02,3.87,1.47,9.16-2.36,11.69-3.48,2.3-8.45,2.24-12.45,2.35-12.04.35-24.03,1.3-36.06,2.06-13.71.87-27.42,1.66-41.14,2.4-28.72,1.55-57.45,2.88-86.17,4.23-29.13,1.37-58.25,2.76-87.37,4.37-28.93,1.61-57.85,3.44-86.73,5.75-6.93.55-13.85,1.14-20.77,1.75-1.76.16-1.77,2.92,0,2.76h0Z"/>
  </g>
  <g id="Chair-crease">
    <path class="cls-5" d="m519.64,363.22c-7.46-.16-14.92,1.02-22,3.37s-13.63,5.47-19.24,9.9c-8.71,6.87-11.28,19.31-12.26,29.75-.59,6.29-.56,12.64-.06,18.93.14,1.76,2.9,1.77,2.76,0-.85-10.76-.59-22.06,2.63-32.44,1.45-4.68,3.63-9.32,7.17-12.79,2.16-2.12,4.85-3.69,7.46-5.18,3.15-1.8,6.43-3.37,9.83-4.64,7.58-2.85,15.61-4.31,23.71-4.14,1.78.04,1.78-2.72,0-2.76h0Z"/>
  </g>
  <g id="Cat">
    <g>
      <path class="cls-8" d="m189.62,204.16c26.15,11.14,58.51,5.84,79.74-13.05,12.09-10.76,20.87-25.5,35.04-33.34,5.2,23.85,4.93,48.88-.8,72.61,6.71,3.56,15.45-.44,19.61-6.79s4.89-14.3,5.28-21.88c.85-16.18.7-32.79-4.83-48.02,6.83,2.82,10.48,6.59,17.83,7.82,12,2,21-1,27-4,9.84-4.92,11-6,9-10-4.12-8.25-4.56-15.04-12-20-6-4-10.02-7.88-10-19-9.73,13.08-30,14-30,14-35-9-109,5-129,23s-35.12,59.37-35.67,88.2c-.19,9.76.66,20.08,6.19,28.13,5.75,8.37,15.87,12.96,25.97,14.07,10.1,1.11,20.27-.88,30.11-3.37,10.36-2.62,22.11-7.32,24.92-17.64.58-2.15.65-4.64-.7-6.41-1.81-2.36-5.29-2.48-8.23-2.07-13.46,1.86-27.82,9.95-39.62,3.21-8.98-5.12-11.82-16.75-11.91-27.08-.13-14.4,3.41-28.82,10.19-41.53"/>
      <path class="cls-1" d="m189.24,204.81c15.87,6.71,33.85,7.58,50.43,3.04,8.26-2.26,16.18-5.86,23.23-10.72s13.34-11.57,19.23-18.21c6.77-7.63,13.63-15.46,22.65-20.5l-1.1-.45c4.01,18.5,4.77,37.68,2.18,56.44-.73,5.31-1.73,10.57-2.98,15.78-.07.31.05.69.34.85,4.69,2.4,10.15,1.52,14.52-1.17,4.94-3.03,7.93-8.01,9.5-13.49,1.79-6.22,1.96-12.83,2.21-19.26.27-6.97.28-13.97-.33-20.92-.67-7.73-2.11-15.4-4.74-22.71l-.92.92c4.05,1.7,7.66,4.23,11.68,5.97,4.28,1.85,8.98,2.48,13.62,2.52,8.01.07,15.31-2.27,22.36-5.89,2.41-1.24,5.72-2.56,7.31-4.91,1.06-1.55.55-3.24-.2-4.8-3.29-6.89-4.97-14.97-11.4-19.77-2.78-2.08-5.71-3.83-7.67-6.79-2.39-3.61-2.91-8-2.92-12.23,0-.81-.98-.94-1.4-.38-4.75,6.3-12.14,9.96-19.61,11.96-2.48.66-5.01,1.17-7.56,1.47-.61.07-1.26.19-1.88.18-.74-.01-1.48-.3-2.22-.46-14.38-3.19-29.62-2.73-44.2-1.42-16.42,1.47-32.8,4.4-48.63,9-6.77,1.96-13.46,4.25-19.9,7.13-5.01,2.24-10,4.84-14.21,8.41-5.83,4.94-10.53,11.31-14.54,17.76-4.79,7.7-8.69,15.96-11.93,24.43-6.36,16.61-10.64,34.65-10.07,52.52.32,9.91,2.51,20.16,9.83,27.36,6.85,6.73,16.5,9.92,25.94,10.43,5.94.32,11.89-.35,17.73-1.45,5.18-.98,10.39-2.17,15.4-3.83,7.53-2.5,15.72-6.58,18.97-14.3,1.53-3.62,2.11-8.81-2.06-10.92s-9.34-.42-13.4.56c-9.59,2.31-20.51,7.01-30.31,3.18-8.76-3.43-12.47-12.86-13.53-21.56-1.28-10.63.29-21.8,3.41-31.98,1.61-5.25,3.72-10.33,6.3-15.18.45-.85-.84-1.61-1.3-.76-5.1,9.61-8.39,20.1-9.68,30.9-1.1,9.18-1.17,19.16,2.5,27.83,1.56,3.69,3.88,7.08,7.1,9.52,3.63,2.76,8.09,4.04,12.62,4.11,10.26.17,19.75-4.65,29.81-5.89,2.13-.26,4.68-.33,6.48,1.03,2.14,1.61,1.97,4.56,1.29,6.87-1.18,4.03-3.97,7.31-7.34,9.71s-7.52,4.21-11.6,5.54c-4.98,1.62-10.15,2.81-15.3,3.77-10.72,1.99-22.14,2.36-32.29-2.17-4.38-1.95-8.39-4.75-11.49-8.43s-5.21-8.55-6.3-13.41c-2.02-8.97-1.59-18.59-.42-27.65s3.25-17.72,5.98-26.28,6.26-17.3,10.54-25.42c3.86-7.35,8.39-14.46,14.01-20.59,3.91-4.27,8.3-7.57,13.42-10.27,5.85-3.09,12.07-5.47,18.35-7.53,15.21-4.99,31.06-8.2,46.94-10.11,15.06-1.81,30.66-2.71,45.73-.49,1.53.22,3.05.49,4.57.8,1.15.23,2.39.73,3.56.79,1.29.07,2.7-.25,3.96-.44,6.35-.96,12.7-2.93,18.19-6.32,3.27-2.01,6.14-4.55,8.46-7.61l-1.4-.38c0,3.61.38,7.28,1.84,10.61,1.13,2.57,2.92,4.73,5.08,6.5,2.68,2.21,5.73,3.82,7.88,6.65s3.44,6.41,4.77,9.78c.73,1.85,1.49,3.68,2.36,5.46.39.79.9,1.67.9,2.58,0,2.01-2.93,3.31-4.37,4.12-6.73,3.77-13.73,6.65-21.51,7.11-5.16.3-10.63-.12-15.45-2.1-4.28-1.76-8.1-4.47-12.37-6.27-.52-.22-1.1.42-.92.92,4.39,12.22,5.37,25.27,5.15,38.17-.11,6.23-.22,12.6-1.18,18.77-.89,5.69-2.76,11.58-7.1,15.6s-10.51,6.03-15.84,3.31l.34.85c4.46-18.6,5.66-37.96,3.46-56.97-.62-5.39-1.51-10.74-2.66-16.04-.11-.48-.7-.67-1.1-.45-15.55,8.69-24.39,24.99-38.09,35.9s-30.69,16.26-47.79,16.17c-9.64-.05-19.26-1.92-28.14-5.67-.88-.37-1.64.92-.76,1.3h0Z"/>
    </g>
    <path class="cls-1" d="m356.21,135.57s.08-.02.12-.04c.09-.03.13.02-.15.01l-.72-.55h0c.11-.28.23-.56.34-.85-.06.04.25-.1.14-.06-.04.01-.07.03-.11.04-.12.04-.24.09-.36.13-.39.14-.78.28-1.17.42-.86.31-1.71.62-2.57.93-.14.05-.29.1-.43.16-.1.04-.26.08-.33.14-.3.23-.4.48-.34.85h0c.05.32.42.55.72.55.13,0,.24-.04.36-.08.37-.12.65-.52.52-.92-.12-.37-.52-.66-.92-.52-.04.01-.08.02-.12.04-.09.03-.13-.02.15-.01l.72.55h0c-.11.28-.23.56-.34.85.06-.04-.25.1-.14.06.04-.01.07-.03.11-.04.12-.04.24-.09.36-.13.39-.14.78-.28,1.17-.42.86-.31,1.71-.62,2.57-.93.14-.05.29-.1.43-.16.1-.04.26-.08.33-.14.3-.23.4-.48.34-.85h0c-.05-.32-.42-.55-.72-.55-.13,0-.24.04-.36.08-.37.12-.65.52-.52.92.12.37.52.66.92.52h0Z"/>
    <path class="cls-1" d="m373.75,146.65c-.73.9-.91,2.11-.51,3.19s1.23,1.98,2.37,2.18c.38.07.83-.1.92-.52.08-.37-.11-.85-.52-.92-.11-.02-.22-.04-.32-.08l-.04-.02c-.08-.03-.06-.02.05.02-.02-.02-.1-.05-.13-.06-.09-.05-.17-.1-.26-.16-.16-.1.09.09-.01,0-.03-.03-.07-.06-.1-.09-.07-.06-.13-.13-.19-.2-.02-.02-.04-.05-.06-.07.06.08.08.1.05.06-.03-.05-.06-.09-.09-.14-.05-.08-.1-.16-.14-.25-.02-.04-.04-.09-.06-.13-.07-.13.05.16,0-.02-.03-.1-.07-.19-.09-.29-.02-.07-.02-.22-.06-.28.02.12.02.14,0,.06v-.05c0-.05-.01-.11-.01-.16,0-.1,0-.2,0-.3,0-.02,0-.05,0-.07,0-.06,0-.03-.01.08.02-.03.02-.1.03-.14.02-.11.06-.21.09-.31.05-.14-.08.14,0,0,.02-.04.04-.08.06-.12s.05-.08.07-.12c.11-.18-.06.06.02-.04.25-.3.32-.77,0-1.06-.27-.25-.8-.32-1.06,0h0Z"/>
    <path class="cls-1" d="m363.25,125.5c0-.09,0-.17.01-.26.01-.19,0-.04.02-.16.04-.23.09-.47.15-.7.13-.53.3-1.06.47-1.58.38-1.13.82-2.25,1.25-3.36.33-.84.69-1.68.91-2.56.07-.3.14-.62.05-.92-.22-.75-1.24-.84-1.89-.8-2.3.13-4.6.36-6.9.54-.96.07-.96,1.57,0,1.5,1.91-.15,3.81-.3,5.72-.44.44-.03.88-.09,1.33-.1.11,0,.33.05.43.03s-.12-.35-.14-.36c0,0-.03-.1-.01.02,0,.06.04-.16,0,0-.04.14-.07.29-.11.43-.58,1.93-1.46,3.77-2.1,5.68-.33.97-.67,2.01-.68,3.04-.01.97,1.49.97,1.5,0h0Z"/>
  </g>
  <g id="Doggo">
    <g>
      <path class="cls-8" d="m531.08,387.72c8.06-.8,16.12-1.61,24.18-2.41,2.03-.2,4.21-.38,5.99.61,3.99,2.22,3.23,8.09,1.91,12.46,0,0-12.31-10.25-17.99,2.93"/>
      <path class="cls-1" d="m531.08,388.47c8.19-.82,16.39-1.7,24.59-2.45,1.73-.16,3.63-.31,5.21.55,1.26.69,2.01,1.91,2.35,3.28.67,2.73,0,5.71-.78,8.34l1.25-.33c-2.13-1.76-4.81-3.16-7.51-3.74-2.09-.45-4.28-.36-6.24.56-2.6,1.23-4.29,3.7-5.42,6.26-.39.87.91,1.64,1.3.76,1.04-2.36,2.54-4.72,5.01-5.78,1.77-.76,3.75-.69,5.58-.21,2.18.58,4.67,1.92,6.22,3.2.43.36,1.08.25,1.25-.33.85-2.89,1.52-6.14.78-9.13s-3.09-4.79-6.12-5.02c-2.07-.16-4.2.22-6.25.42l-6.91.69-14.31,1.43c-.95.09-.96,1.6,0,1.5h0Z"/>
    </g>
    <g>
      <path class="cls-8" d="m504.84,435.42c6.66,5.08,19.88,7.05,36.66,11.08,4.61,1.11,18,2,23-5,4.63-6.49,6.77-12.61,2-19s-8.03-6.32-13.71-11.9c-6.58-6.46-10.71-15.19-17.75-21.14-7.69-6.5-18.14-8.97-28.21-8.83-10.07.15-19.93,2.69-29.67,5.22l.98-.67c-28.15-9.09-56.66-18.26-86.18-20.17-29.52-1.92-60.64,4.15-83.68,22.71-10.74,8.65-21,18.99-20.89,34.39s11.11,19.39,31.11,28.39c12.11,5.45,23-14.88,73-21,32.59-3.99,113.34,5.92,113.34,5.92Z"/>
      <path class="cls-1" d="m504.46,436.07c3.98,2.99,9,4.47,13.74,5.75,6.77,1.83,13.66,3.19,20.48,4.79,4.6,1.08,9.1,1.71,13.84,1.22s9.53-1.87,12.44-5.7c4.05-5.32,6.84-12.22,3.19-18.49-1.54-2.64-3.74-4.97-6.15-6.83-2.27-1.76-4.74-3.22-6.92-5.1-5.23-4.52-8.85-10.46-13.07-15.85s-9.19-9.77-15.56-12.45c-15.98-6.72-33.48-2.44-49.51,1.72l.58,1.37.98-.67c.54-.36.45-1.17-.18-1.37-22.07-7.13-44.27-14.29-67.22-18-20.42-3.29-41.39-3.7-61.63,1.02-18.79,4.38-36.36,13.36-50.05,27.08-6.17,6.18-11.18,13.7-12.44,22.5-.96,6.69-.09,13.73,4.49,18.96s11.71,8.38,18.03,11.26c2.21,1.01,4.44,2,6.66,2.99,1.15.51,2.29,1.11,3.5,1.46,1.35.4,2.78.51,4.18.38,3.43-.33,6.66-1.86,9.72-3.34,4.57-2.21,9.06-4.59,13.7-6.67,14.89-6.67,31.13-10.74,47.37-12.18,13.28-1.18,26.74-.62,40.03.06,14.44.74,28.86,1.91,43.25,3.3,8.56.83,17.12,1.72,25.66,2.74.41.05.83.1,1.24.15.96.12.95-1.38,0-1.5-5.86-.72-11.73-1.35-17.6-1.96-13.23-1.37-26.49-2.56-39.77-3.47-14.05-.96-28.17-1.7-42.26-1.37-15.35.35-30.71,2.91-45.3,7.73-6.11,2.02-12.05,4.49-17.84,7.28-4.02,1.94-7.94,4.11-12.03,5.88-2.67,1.16-5.65,2.23-8.6,1.83-2.55-.35-4.93-1.8-7.24-2.83-3.88-1.74-7.78-3.47-11.54-5.46-5.52-2.92-11.18-6.66-13.35-12.82-2.71-7.68-.77-16.75,3.16-23.64,4.46-7.82,11.57-14.08,18.7-19.42,7.79-5.83,16.5-10.36,25.65-13.65,18.68-6.71,38.89-8.4,58.59-6.75,22.83,1.91,45.04,8.04,66.82,14.87,5.25,1.64,10.48,3.33,15.72,5.02l-.18-1.37-.98.67c-.69.47-.28,1.59.58,1.37,14-3.63,28.8-7.41,43.18-3.6,6.46,1.71,12.31,4.94,16.91,9.81,4.38,4.63,7.67,10.13,11.75,15,2.07,2.47,4.35,4.72,6.93,6.66,2,1.51,4.18,2.78,6.07,4.44,2.46,2.16,4.87,4.94,5.81,8.13s.11,6.72-1.44,9.73c-1.35,2.63-2.98,5.34-5.53,6.95-2.03,1.28-4.38,1.98-6.73,2.38-3.98.68-8.31.63-12.26-.23-7.31-1.57-14.65-3.21-21.89-5.08-5.14-1.32-10.64-2.78-14.95-6.01-.77-.58-1.52.72-.76,1.3Z"/>
    </g>
    <g>
      <path class="cls-8" d="m437.21,403.49c-8.54,3.8-16.76,8.32-24.53,13.5-2.44,1.63-5.01,3.55-5.78,6.38-1.06,3.9,1.9,7.98,5.6,9.6s7.91,1.39,11.94,1.13c8.3-.53,16.59-1.05,24.89-1.58,4.51-.29,10.36.31,11.56,4.67.8,2.88-1.05,5.73-2.42,8.37s-2.16,6.34.13,8.26c1.14.95,2.71,1.14,4.19,1.25,8.47.62,17.03-.09,25.29-2.09,5.62-1.36,11.59-3.72,14.3-8.82,2.82-5.29,1.11-12.12-2.74-16.71s-9.44-7.34-15.03-9.5c-7.58-2.94-15.48-5.05-23.51-6.28"/>
      <path class="cls-1" d="m436.83,402.84c-7.82,3.49-15.38,7.57-22.58,12.21-2.91,1.88-6.36,3.87-7.77,7.21-1.2,2.87-.29,5.98,1.63,8.3,5.09,6.18,14.58,4.39,21.55,3.95,4.56-.29,9.12-.58,13.69-.87,3.64-.23,7.46-.81,11.1-.2,3.06.51,6.23,2.19,5.85,5.79s-3.39,6.44-3.84,10.13c-.37,3.05,1.17,5.57,4.27,6.2,1.92.39,3.95.39,5.9.44,2.24.06,4.49.02,6.73-.1,11.78-.66,34.05-3.76,30.88-20.56-1.35-7.17-7.02-12.19-13.24-15.39-7.23-3.72-15.32-6.13-23.25-7.82-2.14-.46-4.29-.85-6.46-1.18-.94-.15-1.35,1.3-.4,1.45,7.88,1.22,15.62,3.26,23.07,6.11,6.46,2.47,13.43,5.83,16.95,12.12,1.62,2.9,2.5,6.37,1.97,9.69s-2.46,5.99-5.12,7.88-5.61,2.94-8.65,3.76c-3.9,1.05-7.91,1.74-11.92,2.16s-8.16.54-12.24.35c-1.77-.08-3.98.04-5.53-.96-1.41-.91-1.68-2.61-1.45-4.17.5-3.37,3.09-5.95,3.71-9.28.5-2.65-.5-5.16-2.78-6.61s-4.98-1.7-7.51-1.72c-3.83-.03-7.7.42-11.52.66-4.23.27-8.46.54-12.69.8-3.83.24-7.83.75-11.62-.04-3.35-.69-6.58-2.68-7.76-6.05-1.28-3.66,1.19-6.54,3.98-8.57,6.31-4.57,13.32-8.39,20.31-11.81,1.82-.89,3.65-1.74,5.5-2.57.88-.39.12-1.69-.76-1.3h0Z"/>
    </g>
    <g>
      <path class="cls-8" d="m331.56,411.3c15.44-4.93,32.08-3.78,48.25-2.58,5.63.42,12.46,1.71,14.3,7.05,2.45,7.13-6.36,15.77-1.72,21.71,1.4,1.79,3.68,2.63,5.89,3.17,9.48,2.32,19.44.65,29.04-1.17,5.63-1.07,13.01-1.35,15.42,3.85,1.76,3.8-.68,8.49-4.27,10.66s-7.97,2.45-12.15,2.69c-15.73.87-31.45,1.75-47.18,2.62-5.21.29-11.75-.2-13.72-5.04-1.26-3.08-.03-6.93-1.89-9.69-2.13-3.15-16.02,14.95-45.02,5.95"/>
      <path class="cls-1" d="m331.76,412.02c11.63-3.66,23.9-3.94,35.98-3.35,2.95.15,5.89.34,8.83.55,2.55.18,5.12.31,7.64.78,3.98.75,8.56,2.5,9.45,6.96,1.38,6.98-7.84,16.27-.74,22.09,1.96,1.61,4.57,2.24,7.01,2.7,2.83.54,5.72.77,8.6.76,6.08-.02,12.11-1.04,18.07-2.16,4.04-.76,9.03-1.64,12.83.47,4.62,2.57,3.49,8.37.07,11.45-4.26,3.84-11.06,3.51-16.4,3.8-6.37.35-12.75.71-19.12,1.06s-12.91.72-19.37,1.07c-4.73.26-10.16,1.14-14.69-.72-2.05-.84-3.6-2.37-4.12-4.56-.6-2.5-.06-5.17-1.02-7.6-.61-1.55-1.49-2.25-3.1-1.71s-3.01,1.48-4.46,2.27c-2.33,1.28-4.72,2.47-7.2,3.43-7.55,2.91-15.7,3.61-23.67,2.27-2.59-.44-5.13-1.07-7.64-1.84-.92-.28-1.32,1.16-.4,1.45,8.85,2.71,18.26,3.48,27.28,1.12,5.34-1.39,10.03-3.95,14.86-6.5.59-.31,1.18-.63,1.82-.82.32-.1.27-.06.54-.09.05,0,.08.03.08.03.49.64.87,2.08.98,3.15.13,1.3.1,2.6.26,3.89.26,2.16,1.11,4.11,2.83,5.49,3.31,2.67,8.15,2.73,12.18,2.53,6.62-.34,13.24-.73,19.86-1.1,6.62-.37,13.24-.73,19.86-1.1,3.18-.18,6.37-.31,9.55-.54,2.7-.19,5.46-.51,8.01-1.5,4.18-1.61,8.02-5.55,7.62-10.34-.35-4.33-4.12-6.67-8.08-7.19-4.85-.64-9.7.71-14.45,1.5-6.36,1.06-12.91,1.76-19.34.87-2.69-.37-5.81-.87-8.05-2.52-1.81-1.34-2.51-3.42-2.32-5.6.36-4.23,2.78-8.02,3.36-12.22s-1.13-7.79-4.82-9.81c-4.03-2.2-8.83-2.39-13.3-2.72-12.21-.88-24.6-1.55-36.73.62-3.03.54-6.01,1.27-8.94,2.2-.92.29-.53,1.74.4,1.45h0Z"/>
    </g>
    <g>
      <path class="cls-8" d="m508.1,393.59c-9.15-7.72-19.65-13.82-30.88-17.95-1.74-.64-3.62-1.24-5.41-.77-1.68.44-2.98,1.73-4.15,3.01-5.81,6.33-10.68,13.51-14.4,21.25,6.27,2.19,13.11,2.75,19.65,1.61"/>
      <path class="cls-1" d="m508.63,393.06c-7.49-6.29-15.81-11.54-24.75-15.52-2.13-.95-4.28-1.83-6.47-2.63s-4.53-1.43-6.74-.43c-2.05.93-3.56,2.84-5.01,4.5-1.57,1.8-3.07,3.67-4.5,5.59-3.3,4.45-6.15,9.2-8.57,14.19-.22.45-.03.94.45,1.1,6.46,2.21,13.33,2.74,20.05,1.61.95-.16.55-1.61-.4-1.45-6.46,1.09-13.06.52-19.25-1.61l.45,1.1c1.97-4.06,4.23-7.98,6.79-11.7s5.34-7.49,8.62-10.56c.87-.82,1.85-1.52,3.04-1.72,1.36-.23,2.72.16,4.01.6,2.23.76,4.41,1.67,6.57,2.62,4.14,1.83,8.15,3.93,12.02,6.29,4.43,2.7,8.65,5.74,12.63,9.08.73.62,1.8-.44,1.06-1.06h0Z"/>
    </g>
    <path class="cls-1" d="m518.52,410.98h7.27c.97,0,.97-1.5,0-1.5h-7.27c-.97,0-.97,1.5,0,1.5h0Z"/>
    <path class="cls-1" d="m564.5,422.36l-6.92,1.24c-1.09.2-2.22.33-3.3.61-.74.19-1.53.54-1.94,1.23-1.03,1.77,1.1,3.17,2.38,3.96,1.64,1.01,3.46,1.76,5.34,2.21,2.18.52,4.45.65,6.67.37.94-.12.96-1.62,0-1.5-4.21.54-8.52-.45-12.02-2.87-.64-.44-1.72-1.26-.56-1.78.95-.43,2.14-.47,3.15-.65,2.53-.45,5.07-.9,7.6-1.36.95-.17.55-1.62-.4-1.45h0Z"/>
  </g>
  <g id="Chair-Front">
    <path class="cls-5" d="m311.23,667.11c1.63-10.45,2.17-21.02,2.45-31.58s.49-21.71.71-32.56c.43-21.64.77-43.28.75-64.93,0-12.24-.13-24.47-.41-36.7-.04-1.77-2.8-1.78-2.76,0,.49,21.55.49,43.12.25,64.67s-.7,43.08-1.19,64.62c-.27,11.94-.63,23.92-2.47,35.74-.27,1.74,2.39,2.49,2.66.73h0Z"/>
    <path class="cls-5" d="m264.74,504.99c-12.3-5.49-24.97-10.14-37.69-14.55-13.51-4.68-27.12-9.04-40.72-13.43-7.04-2.28-14.08-4.56-21.08-6.93-1.69-.57-2.41,2.1-.73,2.66,26.13,8.83,52.61,16.64,78.45,26.35,6.87,2.58,13.69,5.3,20.39,8.29,1.61.72,3.02-1.66,1.39-2.38h0Z"/>
    <g id="path">
      <path class="cls-7" d="m172,390.21c18.41,1.84,38.66,11.05,61.67,15.65,22.2,4.44,44.18,9.2,65.35,20.25,16.25,8.48,28.09,35.16,26.33,53.4-.37,3.86-1.25,7.76-3.27,11.07-2.56,4.19-29.7,29.29-58.03,15.61-11.5-5.55-24.85-36.82-15.65-50.62,12.76-19.15,28.84-18.87,35.9-20.25"/>
      <path class="cls-5" d="m172,391.59c14.41,1.48,28.23,6.73,42.05,10.75,7.69,2.24,15.43,4.06,23.27,5.66,7.81,1.59,15.6,3.26,23.32,5.27s15.48,4.41,22.97,7.35c3.83,1.5,7.6,3.15,11.3,4.96,2.77,1.35,5.5,2.74,7.95,4.64,9.35,7.22,15.48,18.67,18.79,29.81,1.63,5.49,2.64,11.22,2.47,16.95-.1,3.37-.59,6.78-1.79,9.94-.44,1.15-.98,2.28-1.68,3.29-.05.07-.25.33-.03.05-.06.08-.13.16-.2.24-.17.2-.34.39-.51.59-5.62,6.26-13.42,11.15-21.17,14.24-5.47,2.18-11.28,3.51-17.18,3.51-5.98,0-12.66-1.27-17.84-4.4-3.63-2.2-6.34-5.93-8.53-9.48-2.84-4.61-5.03-9.64-6.53-14.84s-2.32-10.28-1.83-15.5c.2-2.16.69-4.37,1.61-6.34,1.32-2.83,3.43-5.38,5.5-7.69,3.91-4.36,8.68-7.94,14.11-10.18,3.93-1.62,8.08-2.5,12.27-3.11,1.44-.21,2.89-.39,4.32-.66,1.74-.34,1.01-3-.73-2.66-3.55.68-7.15.99-10.67,1.86-5.13,1.27-10.04,3.44-14.32,6.55-2.74,1.99-5.24,4.3-7.46,6.86-2.09,2.41-4.25,5.04-5.56,7.98-2.06,4.64-2.27,9.92-1.68,14.9.68,5.71,2.32,11.24,4.59,16.51,2.09,4.85,4.76,9.54,8.23,13.54,1.4,1.62,2.98,3.12,4.77,4.31,2.48,1.65,5.51,2.69,8.35,3.51,6.28,1.81,12.9,2.01,19.33.87,10.48-1.86,20.36-7.18,28.41-14.04,2.26-1.93,4.61-4.01,5.99-6.69,3.03-5.86,3.41-12.97,2.72-19.43-1.32-12.4-6.37-24.71-14.04-34.54-3.52-4.51-7.78-8.58-12.87-11.26-7.56-3.99-15.54-7.24-23.64-9.96-7.87-2.64-15.91-4.76-24-6.62s-16.35-3.29-24.46-5.22c-15.37-3.66-30.17-9.45-45.64-12.71-3.3-.69-6.63-1.24-9.98-1.58-1.77-.18-1.75,2.58,0,2.76h0Z"/>
    </g>
    <path class="cls-1" d="m681.01,482.72c1.78,0,1.78-2.76,0-2.76s-1.78,2.76,0,2.76h0Z"/>
  </g>
</svg>